# xmcd
#
# Track frame offsets: 
#        150
#        3152
#        7596
#        12246
#        19388
#        23993
#        26115
#        33840
#        35546
#        38811
#        40857
#
# Disc length: 612 seconds
#
# Revision: 0
# Processed by: cddbd v1.5.2PL0 Copyright (c) Steve Scherf et al.
# Submitted via: ExactAudioCopy v1.0b1
#
DISCID=7102620b
DTITLE=犬山イヌコ - inu cafe Disc 2
DYEAR=2007
DGENRE=J-Pop
TTITLE0=しゃくなげの花
TTITLE1=なにか
TTITLE2=むしの一生
TTITLE3=ゆうきをもて
TTITLE4=きぼう
TTITLE5=ごんげらじじいのうた
TTITLE6=おれは男だ
TTITLE7=人気しょうばい
TTITLE8=たべもの
TTITLE9=月見そばのうた
TTITLE10=王様
EXTD=
EXTT0=
EXTT1=
EXTT2=
EXTT3=
EXTT4=
EXTT5=
EXTT6=
EXTT7=
EXTT8=
EXTT9=
EXTT10=
PLAYORDER=
